<svg width="24" height="24" viewBox="0 0 24 24" fill="none" xmlns="http://www.w3.org/2000/svg">
<path d="M7.98069 18.9316C8.47991 18.3582 8.78328 17.6099 8.78328 16.7917C8.78328 14.992 7.31919 13.5279 5.51951 13.5279C4.84212 13.5279 4.21236 13.7355 3.69026 14.0901C3.61376 13.6191 3.57481 13.1407 3.57481 12.6587C3.57481 10.3502 4.45803 8.16491 6.06172 6.5053C7.25272 5.27277 8.74625 4.42738 10.379 4.04117L9.29426 5.34749L10.3786 6.24795L13.1614 2.89686L9.44708 0.817017L8.75848 2.04683L9.92623 2.70074C8.08278 3.16166 6.39781 4.1293 5.04819 5.52589C3.18917 7.44969 2.16537 9.98281 2.16537 12.6588C2.16537 13.6056 2.29437 14.541 2.54834 15.4438C2.36103 15.855 2.2558 16.3112 2.2558 16.7917C2.2558 17.6116 2.56034 18.3613 3.06134 18.9351C1.29326 19.5921 0.0300293 21.2965 0.0300293 23.2905V23.9952H11.021V23.2905C11.021 21.293 9.75359 19.5861 7.98069 18.9316ZM5.51956 14.9374C6.54205 14.9374 7.37384 15.7693 7.37384 16.7917C7.37384 17.8141 6.542 18.646 5.51951 18.646C4.49708 18.646 3.66528 17.8141 3.66528 16.7917C3.66528 15.7693 4.49712 14.9374 5.51956 14.9374ZM1.5169 22.5857C1.83936 21.1396 3.13273 20.0555 4.67455 20.0555H6.37662C7.91844 20.0555 9.21181 21.1396 9.53426 22.5857H1.5169Z" fill="black"/>
<path d="M23.97 9.76247C23.97 7.76508 22.7025 6.05817 20.9297 5.40366C21.4289 4.83023 21.7323 4.08197 21.7323 3.26372C21.7323 1.46409 20.2682 0 18.4685 0C16.6688 0 15.2047 1.46409 15.2047 3.26372C15.2047 4.08361 15.5093 4.83323 16.0103 5.40712C14.2423 6.06413 12.9791 7.76845 12.9791 9.76252V10.4672H21.0261C21.1995 11.1653 21.2874 11.8845 21.2874 12.6118C21.2874 14.7402 20.5214 16.7973 19.1305 18.4044C18.1326 19.5575 16.8615 20.4268 15.4504 20.9391L16.3793 19.4856L15.1918 18.7266L12.8459 22.3969L16.7895 24L17.3204 22.6943L16.1032 22.1995C17.6701 21.5985 19.0808 20.6157 20.1963 19.3268C21.8089 17.4636 22.697 15.0788 22.697 12.6118C22.697 11.8871 22.6214 11.1691 22.4723 10.4672H23.97V9.76247H23.97ZM18.4685 1.40948C19.491 1.40948 20.3228 2.24133 20.3228 3.26372C20.3228 4.2862 19.4909 5.118 18.4685 5.118C17.4461 5.118 16.6142 4.28616 16.6142 3.26372C16.6142 2.24128 17.446 1.40948 18.4685 1.40948ZM14.4659 9.05775C14.7884 7.61161 16.0817 6.52753 17.6235 6.52753H19.3256C20.8674 6.52753 22.1608 7.61166 22.4833 9.05775H14.4659Z" fill="black"/>
</svg>
