<svg width="37" height="47" viewBox="0 0 37 47" fill="none" xmlns="http://www.w3.org/2000/svg">
<path d="M36.1432 4.05997V8.5007C36.1432 12.6228 34.6893 16.5762 32.1013 19.4909C29.5133 22.4057 26.0032 24.0433 22.3432 24.0433H20.3718V26.2636H30.2289V41.8062C30.2289 42.9839 29.8135 44.1135 29.0741 44.9463C28.3347 45.7791 27.3318 46.2469 26.2861 46.2469H10.5146C9.46892 46.2469 8.46604 45.7791 7.72661 44.9463C6.98718 44.1135 6.57178 42.9839 6.57178 41.8062V26.2636H16.4289V19.6025C16.4289 15.4804 17.8828 11.5271 20.4708 8.61228C23.0588 5.69748 26.5689 4.05997 30.2289 4.05997H36.1432Z" fill="black"/>
<path d="M6.57211 0.814825C8.82536 0.812546 11.0461 1.48603 13.0473 2.77857C15.0484 4.0711 16.7715 5.94486 18.0714 8.24207C16.0873 11.4965 15.0158 15.4751 15.022 19.5646V21.9083H14.0831C10.348 21.9083 6.76594 20.0563 4.12484 16.7598C1.48375 13.4634 0 8.99235 0 4.3304V0.814825H6.57211Z" fill="#35E87C"/>
</svg>
