<svg width="37" height="42" viewBox="0 0 37 42" fill="none" xmlns="http://www.w3.org/2000/svg">
<path d="M30.2289 3.75412H35.6432V7.25078C35.6432 10.8303 34.2403 14.2618 31.7453 16.7909C29.2506 19.3197 25.8684 20.7391 22.3432 20.7391H20.3718H19.8718V21.2391V23.2374V23.7374H20.3718H29.7289V37.2257C29.7289 38.1553 29.3646 39.0454 28.7181 39.7006C28.0719 40.3556 27.197 40.7224 26.2861 40.7224H10.5146C9.60374 40.7224 8.72875 40.3556 8.08255 39.7006C7.43613 39.0454 7.07178 38.1553 7.07178 37.2257V23.7374H16.4289H16.9289V23.2374V17.2424C16.9289 13.6629 18.3318 10.2314 20.8268 7.70235C23.3216 5.17354 26.7037 3.75412 30.2289 3.75412Z" stroke="black" stroke-opacity="0.61"/>
<path d="M6.57211 0.833502L6.57257 0.833501C8.7349 0.831533 10.869 1.41302 12.796 2.53314C14.6359 3.60268 16.2371 5.13457 17.4742 7.01381C15.5492 9.97623 14.5159 13.5468 14.522 17.2085C14.522 17.2087 14.522 17.2089 14.522 17.2091L14.522 18.8176H14.0831C10.5006 18.8176 7.05133 17.2195 4.4983 14.3516C1.94359 11.4818 0.5 7.57822 0.5 3.49752V0.833501L6.57211 0.833502Z" stroke="#35E87C" stroke-opacity="0.61"/>
</svg>
